<mxfile host="app.diagrams.net" modified="2024-04-22T07:53:09.456Z" agent="Mozilla/5.0 (Windows NT 10.0; Win64; x64; rv:125.0) Gecko/20100101 Firefox/125.0" etag="DRtc5JSYgQyOswcTpUdU" version="24.2.2" type="device">
  <diagram id="R2lEEEUBdFMjLlhIrx00" name="Page-1">
    <mxGraphModel dx="731" dy="744" grid="1" gridSize="10" guides="1" tooltips="1" connect="1" arrows="1" fold="1" page="1" pageScale="1" pageWidth="850" pageHeight="1100" math="0" shadow="0" extFonts="Permanent Marker^https://fonts.googleapis.com/css?family=Permanent+Marker">
      <root>
        <mxCell id="0" />
        <mxCell id="1" parent="0" />
        <mxCell id="cs25DOh5I15PXpmV0oOL-1" value="Medico" style="swimlane;childLayout=stackLayout;horizontal=1;startSize=50;horizontalStack=0;rounded=1;fontSize=14;fontStyle=0;strokeWidth=2;resizeParent=0;resizeLast=1;shadow=0;dashed=0;align=center;arcSize=4;whiteSpace=wrap;html=1;" vertex="1" parent="1">
          <mxGeometry x="210" y="60" width="160" height="120" as="geometry" />
        </mxCell>
        <mxCell id="cs25DOh5I15PXpmV0oOL-2" value="&lt;div&gt;rut (PK)&lt;/div&gt;&lt;div&gt;nombre&lt;/div&gt;&lt;div&gt;direccion&lt;br&gt;&lt;/div&gt;" style="align=left;strokeColor=none;fillColor=none;spacingLeft=4;fontSize=12;verticalAlign=top;resizable=0;rotatable=0;part=1;html=1;" vertex="1" parent="cs25DOh5I15PXpmV0oOL-1">
          <mxGeometry y="50" width="160" height="70" as="geometry" />
        </mxCell>
        <mxCell id="cs25DOh5I15PXpmV0oOL-20" value="&lt;div&gt;rut (PK)&lt;/div&gt;&lt;div&gt;nombre&lt;/div&gt;&lt;div&gt;direccion&lt;br&gt;&lt;/div&gt;" style="align=left;strokeColor=none;fillColor=none;spacingLeft=4;fontSize=12;verticalAlign=top;resizable=0;rotatable=0;part=1;html=1;" vertex="1" parent="cs25DOh5I15PXpmV0oOL-1">
          <mxGeometry y="120" width="160" as="geometry" />
        </mxCell>
        <mxCell id="cs25DOh5I15PXpmV0oOL-3" value="Especialidad" style="swimlane;childLayout=stackLayout;horizontal=1;startSize=50;horizontalStack=0;rounded=1;fontSize=14;fontStyle=0;strokeWidth=2;resizeParent=0;resizeLast=1;shadow=0;dashed=0;align=center;arcSize=4;whiteSpace=wrap;html=1;" vertex="1" parent="1">
          <mxGeometry x="520" y="60" width="160" height="120" as="geometry" />
        </mxCell>
        <mxCell id="cs25DOh5I15PXpmV0oOL-4" value="&lt;div&gt;codigo (PK)&lt;/div&gt;&lt;div&gt;descripcion&lt;br&gt;&lt;/div&gt;" style="align=left;strokeColor=none;fillColor=none;spacingLeft=4;fontSize=12;verticalAlign=top;resizable=0;rotatable=0;part=1;html=1;" vertex="1" parent="cs25DOh5I15PXpmV0oOL-3">
          <mxGeometry y="50" width="160" height="70" as="geometry" />
        </mxCell>
        <mxCell id="cs25DOh5I15PXpmV0oOL-5" style="edgeStyle=orthogonalEdgeStyle;rounded=0;orthogonalLoop=1;jettySize=auto;html=1;endArrow=none;endFill=0;" edge="1" parent="1" source="cs25DOh5I15PXpmV0oOL-2" target="cs25DOh5I15PXpmV0oOL-4">
          <mxGeometry relative="1" as="geometry">
            <Array as="points">
              <mxPoint x="450" y="120" />
              <mxPoint x="450" y="120" />
            </Array>
          </mxGeometry>
        </mxCell>
        <mxCell id="cs25DOh5I15PXpmV0oOL-6" value="*" style="edgeLabel;html=1;align=center;verticalAlign=middle;resizable=0;points=[];" vertex="1" connectable="0" parent="cs25DOh5I15PXpmV0oOL-5">
          <mxGeometry x="-0.1333" y="-3" relative="1" as="geometry">
            <mxPoint x="-45" y="17" as="offset" />
          </mxGeometry>
        </mxCell>
        <mxCell id="cs25DOh5I15PXpmV0oOL-7" value="1" style="edgeLabel;html=1;align=center;verticalAlign=middle;resizable=0;points=[];" vertex="1" connectable="0" parent="cs25DOh5I15PXpmV0oOL-5">
          <mxGeometry x="0.7333" y="-2" relative="1" as="geometry">
            <mxPoint y="18" as="offset" />
          </mxGeometry>
        </mxCell>
        <mxCell id="cs25DOh5I15PXpmV0oOL-17" style="edgeStyle=orthogonalEdgeStyle;rounded=0;orthogonalLoop=1;jettySize=auto;html=1;entryX=0;entryY=0.5;entryDx=0;entryDy=0;endArrow=none;endFill=0;" edge="1" parent="1" source="cs25DOh5I15PXpmV0oOL-9" target="cs25DOh5I15PXpmV0oOL-11">
          <mxGeometry relative="1" as="geometry" />
        </mxCell>
        <mxCell id="cs25DOh5I15PXpmV0oOL-18" value="*" style="edgeLabel;html=1;align=center;verticalAlign=middle;resizable=0;points=[];" vertex="1" connectable="0" parent="cs25DOh5I15PXpmV0oOL-17">
          <mxGeometry x="-0.44" relative="1" as="geometry">
            <mxPoint x="-32" y="20" as="offset" />
          </mxGeometry>
        </mxCell>
        <mxCell id="cs25DOh5I15PXpmV0oOL-19" value="1" style="edgeLabel;html=1;align=center;verticalAlign=middle;resizable=0;points=[];" vertex="1" connectable="0" parent="cs25DOh5I15PXpmV0oOL-17">
          <mxGeometry x="0.0933" y="-3" relative="1" as="geometry">
            <mxPoint x="48" y="17" as="offset" />
          </mxGeometry>
        </mxCell>
        <mxCell id="cs25DOh5I15PXpmV0oOL-9" value="Consulta" style="swimlane;childLayout=stackLayout;horizontal=1;startSize=50;horizontalStack=0;rounded=1;fontSize=14;fontStyle=0;strokeWidth=2;resizeParent=0;resizeLast=1;shadow=0;dashed=0;align=center;arcSize=4;whiteSpace=wrap;html=1;" vertex="1" parent="1">
          <mxGeometry x="210" y="270" width="160" height="120" as="geometry" />
        </mxCell>
        <mxCell id="cs25DOh5I15PXpmV0oOL-10" value="+Attribute1&lt;div&gt;&lt;br/&gt;&lt;/div&gt;" style="align=left;strokeColor=none;fillColor=none;spacingLeft=4;fontSize=12;verticalAlign=top;resizable=0;rotatable=0;part=1;html=1;" vertex="1" parent="cs25DOh5I15PXpmV0oOL-9">
          <mxGeometry y="50" width="160" height="70" as="geometry" />
        </mxCell>
        <mxCell id="cs25DOh5I15PXpmV0oOL-11" value="Paciente" style="swimlane;childLayout=stackLayout;horizontal=1;startSize=50;horizontalStack=0;rounded=1;fontSize=14;fontStyle=0;strokeWidth=2;resizeParent=0;resizeLast=1;shadow=0;dashed=0;align=center;arcSize=4;whiteSpace=wrap;html=1;" vertex="1" parent="1">
          <mxGeometry x="520" y="270" width="160" height="120" as="geometry" />
        </mxCell>
        <mxCell id="cs25DOh5I15PXpmV0oOL-12" value="+Attribute1&lt;div&gt;&lt;br/&gt;&lt;/div&gt;" style="align=left;strokeColor=none;fillColor=none;spacingLeft=4;fontSize=12;verticalAlign=top;resizable=0;rotatable=0;part=1;html=1;" vertex="1" parent="cs25DOh5I15PXpmV0oOL-11">
          <mxGeometry y="50" width="160" height="70" as="geometry" />
        </mxCell>
        <mxCell id="cs25DOh5I15PXpmV0oOL-14" style="edgeStyle=orthogonalEdgeStyle;rounded=0;orthogonalLoop=1;jettySize=auto;html=1;endArrow=none;endFill=0;" edge="1" parent="1" source="cs25DOh5I15PXpmV0oOL-2" target="cs25DOh5I15PXpmV0oOL-9">
          <mxGeometry relative="1" as="geometry" />
        </mxCell>
        <mxCell id="cs25DOh5I15PXpmV0oOL-15" value="1" style="edgeLabel;html=1;align=center;verticalAlign=middle;resizable=0;points=[];" vertex="1" connectable="0" parent="cs25DOh5I15PXpmV0oOL-14">
          <mxGeometry x="-0.2667" relative="1" as="geometry">
            <mxPoint x="10" y="-13" as="offset" />
          </mxGeometry>
        </mxCell>
        <mxCell id="cs25DOh5I15PXpmV0oOL-16" value="*" style="edgeLabel;html=1;align=center;verticalAlign=middle;resizable=0;points=[];" vertex="1" connectable="0" parent="cs25DOh5I15PXpmV0oOL-14">
          <mxGeometry x="0.6" y="2" relative="1" as="geometry">
            <mxPoint x="8" as="offset" />
          </mxGeometry>
        </mxCell>
      </root>
    </mxGraphModel>
  </diagram>
</mxfile>
